<?xml version="1.0" encoding="utf-8"?>
<!-- Generator: Adobe Illustrator 16.0.0, SVG Export Plug-In . SVG Version: 6.00 Build 0)  -->
<!DOCTYPE svg PUBLIC "-//W3C//DTD SVG 1.1//EN" "http://www.w3.org/Graphics/SVG/1.1/DTD/svg11.dtd">
<svg version="1.1" id="Layer_1" xmlns="http://www.w3.org/2000/svg" xmlns:xlink="http://www.w3.org/1999/xlink" x="0px" y="0px"
	 width="1280px" height="300px" viewBox="0 0 1280 300" enable-background="new 0 0 1280 300" xml:space="preserve">
<path fill="#BBEB5C" d="M1262,116c-42.553-8.668-58.4,27.988-63.209,43.921c4.068-18.666,10.355-68.185-35.791-73.56
	c-32.405-3.774-44.444,22.805-48.805,46.446C1109.483,125.536,1099.247,120,1079,120c-30.592,0-38.866,12.635-39.745,24.803
	c-6.46-9.527-20.657-18.443-51.255-18.123c-37.2,0.389-53.105,13.539-59.91,24.715C933.139,129.627,933.351,92.705,877,92
	c-80-1-52,75-52,75s-15-40.5-53-40.32C732,126.87,726,167,726,167s-4-72-86-50c-57.328,15.381-74.318,36.354-79.159,45.466
	C565.724,149.14,575.875,110.596,533,104c-52-8-56,63-56,63s-7-73-62-76c-24.695-1.347-33.459,13.839-35.625,30.981
	c-3.771-2.426-8.785-4.197-15.375-4.981c-42-5-45,50-45,50s-14-56-53-56c-44.304,0-48.621,49.729-48.971,55.456
	C217.32,159.922,218.538,95.542,154,87c-68-9-63,80-63,80s-11-59-50-57S0,167,0,167v133h1280V167C1280,167,1316,127,1262,116z"/>
</svg>
