<?xml version="1.0" encoding="utf-8"?>
<!-- Generator: Adobe Illustrator 16.0.0, SVG Export Plug-In . SVG Version: 6.00 Build 0)  -->
<!DOCTYPE svg PUBLIC "-//W3C//DTD SVG 1.1//EN" "http://www.w3.org/Graphics/SVG/1.1/DTD/svg11.dtd">
<svg version="1.1" id="Layer_1" xmlns="http://www.w3.org/2000/svg" xmlns:xlink="http://www.w3.org/1999/xlink" x="0px" y="0px"
	 width="254px" height="100px" viewBox="0 0 254 100" enable-background="new 0 0 254 100" xml:space="preserve">
<g transform="translate(-667 -42.688)">
	<g transform="translate(667 42.688)">
		<path fill="#FFFFFF" d="M102.447-42.305c-0.217-0.426-0.74-0.592-1.163-0.375c-0.059,0.029-0.114,0.068-0.164,0.111
			c-3.189,3.736-5.45,7.215-8.639,10.83c-0.93,0.787-1.927,1.77-3.257,1.506c-1.727-0.131-2.654-1.771-3.454-3.018
			c-0.928-1.639-1.882-3.197-2.924-5.1c-0.123-0.371-0.373-0.406-0.621-0.039c-4.056,4.459-8.617,10.059-15.59,8.027
			c-4.226-1.197-7.448-4.627-8.371-8.922c-2.297-11.044,2.566-22.343,12.164-28.267c4.49-2.607,12.823-2.625,17.142,1.245
			c1.397,1.623,1.873,3.847,1.262,5.9c-0.408,1.729-1.781,3.063-3.519,3.422c-3.924,0.784-7.981-3.248-10.768-0.855
			c-4.244,3.27-6.483,8.516-5.91,13.842c0.147,0.756,0.715,1.363,1.458,1.568c2.461,0.457,4.038-2.354,5.449-4.001
			c1.828-2.206,4.385-8.265,8.976-6.23c2.368,1.979,1.995,1.935,4.153,4.642c0.998,1.313,1.578,1.313,2.09,0.801l10.035-12.266
			c0.842-1.048,2.229-1.488,3.521-1.113l1.196,0.855c2.137,3.074,2.925,4.428,4.753,7.543c0.911,1.762,1.205,2.137,2.076,0.779
			c1.992-2.494,6.435-9.349,8.255-9.438c2.166-0.034,3.123,2.164,4.118,3.739c2.258,3.539,3.989,7.607,6.646,10.83
			c1.201,0.738,1.593-0.456,2.057-1.244c1.287-2.438,2.226-5.045,2.792-7.743c-2.436-1.081-4.182-3.296-4.661-5.918
			c-0.416-2.919,0.979-5.798,3.526-7.28c2.603-1.445,5.767-1.445,8.37,0c1.593,0.785,2.057,2.359,2.922,3.74
			c4.65-0.135,10.697-1.643,14.553,1.047c1.39,1.359,2.136,3.24,2.058,5.183l-0.464,14.233c-0.015,0.797,0.399,0.918,0.932,1.047
			c2.238-0.197,4.348-1.145,5.981-2.688c-0.189-5.323,0.056-10.654,0.734-15.938c0.243-1.457,1.152-2.717,2.457-3.409
			c1.929-0.854,4.917-1.117,6.711,0.263c3.723,2.885,1.528,8.721,1.928,12.985c-0.291,2.669-0.178,5.368,0.331,8.003
			c0.465,0.721,0.723,0.898,2.394,0.457c1.336-0.424,2.594-1.066,3.718-1.904c-1.593-8.064-1.593-18.168,4.852-23.744
			c3.886-3.524,9.349-4.721,14.352-3.148c2.07,0.642,4.021,1.616,5.78,2.885c1.995-0.526,3.721-1.639,5.714-2.359
			c5.316-2.493,13.288-3.147,18.404,0.263c4.897,2.906,7.994,8.086,8.24,13.774c-0.6,14.495-13.021,25.056-24.918,30.763
			c-5.646,2.424-14.217,4.33-19.661,0.197c-3.208-2.121-5.888-4.947-7.836-8.266l-0.597,0.064
			c-5.379,2.422-11.825,6.297-17.874,3.084c-1.115-0.74-2.048-1.729-2.724-2.887c-1.529,0.59-3.118,1.51-4.716,2.166
			c-3.524,1.574-8.438,3.082-12.029,0.525c-6.709-4.787-2.19-14.498-3.253-21.645c-1.263-1.248-3.52-0.592-5.05-0.328
			c-2.522,8.201-4.386,17.578-11.628,22.824c-1.85,0.998-4.083,0.977-5.911-0.064c-3.848-2.623-4.661-6.125-7.65-9.869
			c-1.743-2.215-3.097,0.033-4.153,1.723c-2.228,3.391-3.112,5.08-6.002,8.934c-0.475,0.779-1.852,1.025-2.717-0.41
			C107.439-32.531,103.112-41.303,102.447-42.305z M232.409-54.373c0.515-1.95-0.099-4.024-1.593-5.379
			c-3.324-2.492-7.177,0.131-10.17,1.443c-4.249,2.205-7.039,5.443-11.825,4.723c-2.093-0.835-3.604-2.699-3.989-4.92
			c-0.157-0.666-0.179-1.357-0.065-2.033c-1.814-0.507-3.751,0.178-4.845,1.71c-2.656,4.723-0.862,11.938,1.794,16.657
			c1.796,2.566,3.918,6.758,7.98,5.969c6.334-1.713,12.153-4.955,16.942-9.443C229.404-47.898,231.417-50.945,232.409-54.373
			L232.409-54.373z"/>
		<path fill="#FFFFFF" d="M180.051-69.525c-2.271,1.242-4.979,1.386-7.371,0.394c-1.729-0.985-3.989-2.689-4.055-5.115
			c-0.15-2.136,0.74-4.212,2.391-5.575c1.996-1.547,4.578-2.124,7.044-1.576c2.839,0.631,4.985,2.96,5.379,5.841
			C183.586-73.057,182.262-70.7,180.051-69.525z"/>
		<path fill="#FFFFFF" d="M54.875-72.872c-4.653,2.034-6.839-3.41-10.631-4.197c-5.514-1.114-11.028,0.657-15.614,3.017
			c-1.885,1.098-4.875,2.699-4.518,4.92c0.427,2.081,4.381,3.147,6.777,4.198c6.376,2.492,13.218,3.935,19.201,7.605
			c3.964,2.434,6.065,7.021,5.316,11.611c-0.998,9.25-9.5,15.021-17.607,17.777c-7.775,2.23-17.474,1.639-23.986-2.82
			c-3.926-2.646-5.72-7.508-4.452-12.07c1.16-3.003,3.964-5.051,7.176-5.246c2.168-0.307,4.325,0.629,5.583,2.422
			c1.425,2.336-0.532,5.311,1.852,6.82c2.127,2.033,5.717,1.775,8.639,1.447c4.518-1.053,9.37-3.674,11.098-8.07
			c0.303-1.175-0.083-2.419-0.998-3.215c-2.72-1.553-5.621-2.764-8.639-3.605c-7.978-3.607-18.735-3.871-23.122-12.266
			c-1.532-4.678-0.12-9.817,3.587-13.054c8.772-7.252,19.924-10.992,31.296-10.495c5.051,0.46,10.633,2.298,12.754,7.019
			c1.251,3.269-0.385,6.933-3.655,8.183C54.913-72.885,54.894-72.878,54.875-72.872z"/>
	</g>
</g>
<g>
	<path fill="#FFFFFF" d="M-102.538,29.256c-6.917,1.915-13.791,6.112-18.385,11.881c2.235-11.268,3.052-25.115-6.82-26.35
		c-4.867-0.608-4.908,10.643,0.123,11.521c0.004,0.108,0.041,0.365,0.135,0.913c0.31,1.808-0.047,3.936-0.242,5.737
		c-0.507,4.689-1.521,9.359-2.703,13.92c-0.859,3.315-1.817,6.638-3.069,9.829c-0.63,1.607-4.6,12.082-5.687,5.916
		c-1.334-7.566-8.311-2.788-7.246,3.254c1.238,7.022,9.293,15.372,14.887,6.858c2.553-3.887,4.33-8.511,5.777-13.122
		c0.666,2.785,1.909,5.431,3.692,7.339c3.308,3.538,8.14,4.327,12.096,6.867c5.337,3.43,7.578-7.516,3.587-10.078
		c-3.73-2.396-13.829-4.38-11.892-10.3c2.184-6.675,11.838-11.369,18.039-13.085C-95.627,39.08-97.032,27.733-102.538,29.256z"/>
	<path fill="#FFFFFF" d="M-30.981,51.232c-0.767-3.89-3.301-6.025-7.128-6.45c-2.837-0.315-5.189,1.08-6.692,3.163
		c-3.549-3.795-8.362-2.124-12.396,0.673c-3.909-1.851-8.571-1.628-13.188,0.843c-3.081,1.649-5.218,3.802-6.725,6.304
		c-0.068-0.612-0.144-1.224-0.207-1.838c-0.553-5.385-5.854-5.429-5.866,0.145c-0.011,5.45,0.184,12.705-6.737,13.344
		c-2.513,0.232-5.384-0.404-7.071-2.353c3.878,0.75,7.458-0.341,9.261-5.142c2.944-7.837-5.004-17.204-12.347-10.443
		c-1.19,1.096-2.021,2.54-2.591,4.141c-1.931-1.405-3.67-3.104-4.946-4.514c-1.483-1.638-3.46,0.263-3.974,1.702
		c-0.761,2.132-0.293,4.434,1.202,6.086c1.567,1.731,3.978,3.763,6.675,5.394c0.028,0.611,0.073,1.203,0.129,1.764
		c0.517,5.139,2.945,9.378,7.798,11.425c4.659,1.966,10.586,0.948,13.962-2.8c0.429-0.476,0.805-0.982,1.156-1.503
		c0.042,0.194,0.073,0.39,0.117,0.584c0.859,3.82,5.35,4.176,5.657-0.139c0.302-4.248,0.365-8.553,3.557-11.73
		c1.931-1.921,4.463-3.239,7.051-3.613c-1.813,3.421-2.49,7.331-1.73,11.51c1.161,6.394,8.326,9.59,13.789,5.901
		c5.698-3.848,4.665-12.617,1.977-17.939c-0.194-0.385-0.405-0.743-0.616-1.102c3.711-1.159,3.835,4.031,4.14,6.729
		c0.794,7.058,1.549,17.302-4.849,22.055c-2.944,2.188-0.778,10.562,3.15,7.643c5.788-4.3,7.399-12.095,7.814-18.891
		c0.085-1.396,0.164-2.945,0.206-4.571c3.214-0.484,5.78-1.646,7.868-4.301C-30.016,60.104-30.244,54.978-30.981,51.232z
		 M-93.987,56.212c-0.59,0.185-1.27,0.184-1.825,0.186c-0.053,0-0.106-0.008-0.16-0.009C-95.359,56.111-94.668,56.08-93.987,56.212z
		 M-55.658,66.028c-4.036,1.82-5.641-1.365-3.969-4.489c0.613-1.147,1.579-2.233,2.696-3.211
		C-54.846,60.175-52.293,64.511-55.658,66.028z M-40.753,58.702c-0.138-1.113-0.325-2.204-0.563-3.262
		c0.168-0.31,0.309-0.638,0.423-0.96c0.068-0.025,0.232-0.127,0.574-0.299c0.761-0.381,1.598-0.432,2.429-0.464
		c0.408-0.017,0.988,0.111,1.365,0.335c0.032,0.103,0.068,0.264,0.092,0.52C-36.161,57.479-38.227,58.335-40.753,58.702z"/>
	<path fill="#FFFFFF" d="M-14.72,45.254c-0.148-3.173-1.313-6.769-4.43-8.161c-3.381-1.509-7.326,1.439-9.759,3.418
		c-0.285,0.231-0.517,0.526-0.703,0.862c-0.425-0.49-0.865-0.972-1.336-1.435c-3.37-3.314-5.353,5.249-2.771,7.788
		c7.311,7.189,6.253,20.506,6.702,29.928c0.262,5.467,6.13,5.365,5.867-0.145c-0.278-5.826-0.324-12.262-1.25-18.441
		C-16.919,57.711-14.482,50.307-14.72,45.254z M-21.147,48.134c-0.031,0.037-0.094,0.132-0.215,0.342
		c-0.712,1.234-1.416,1.848-2.83,1.889c-0.102,0.003-0.188,0.035-0.284,0.049c-0.3-0.843-0.631-1.672-0.996-2.483
		c0.9-0.712,1.81-1.335,2.861-1.83c0.198-0.093,1.133-0.361,1.127-0.39c0.232-0.013,0.459,0.009,0.578-0.009
		C-20.861,45.797-21,45.879-21,45.884c0,0.007,0,0.011,0,0.018c0,0.306,0.137,0.609,0.078,0.911c0.029-0.229-0.143,0.8-0.228,1.025
		C-21.201,47.974-21.125,48.068-21.147,48.134z"/>
	<path fill="#FFFFFF" d="M-8.201,29.243c-0.356-1.731-1.665-3.74-3.685-3.032c-1.858,0.652-2.883,2.174-3.253,4.077
		c-0.418,2.148,0.317,4.889,2.253,6.106c0.735,0.462,1.399,0.786,2.271,0.395c0.853-0.382,1.4-1.25,1.702-2.096
		c0.18-0.503,0.28-1.034,0.322-1.57c0.067-0.147,0.129-0.292,0.178-0.43C-8.021,31.599-7.968,30.376-8.201,29.243z"/>
	<path fill="#FFFFFF" d="M-7.533,59.123c0.219-7.505,1.796-15.791-4.997-20.611c-3.912-2.775-4.938,5.919-1.962,8.031
		c2.61,1.852,1.546,8.324,1.473,11.07c-0.1,3.776-0.221,7.493,0.647,11.192c0.425,1.809,2.979,4.246,4.613,2.104
		c0.895-1.173,1.758-2.367,2.652-3.539C-3.285,64.984-5.192,58.985-7.533,59.123z"/>
</g>
<g>
	<path fill="#FFFFFF" d="M-85.772,143.183c-0.479-1.158-1.768-2.389-3.008-2.134c4.113-3.147,4.381-11.809,0.317-15.872
		c-5.547-5.546-14.77-2.409-18.376,3.713c-2.149,3.648-2.53,8.047-1.537,12.124c-0.522-0.26-1.14-0.287-1.843,0.03
		c-5.232,2.358-14.616,2.572-19.358-0.965c-2.188-1.632,3.479-8.515,4.652-9.925c2.921-3.511,6.578-6.742,10.81-8.532
		c3.473-1.468,2.214-10.262-1.771-8.577c-5.211,2.203-12.195,7.936-16.485,14.563c2.45-13.754-4.381-31.016-20.406-30.409
		c-3.992,0.15-3.753,9.085,0.22,8.935c12.565-0.476,17.023,12.417,13.471,22.614c-0.866,2.485-8.441,22.99-12.195,20.025
		c-3.801-3.003-5.646,5.517-2.771,7.787c7.448,5.884,14.066-7.319,17.818-16.962c0.084,1.487,0.418,2.944,1.06,4.342
		c4.093,8.913,18.877,9.22,26.726,5.682c1.274-0.575,1.899-2.143,1.982-3.799c0.707,1.24,1.552,2.394,2.528,3.411
		c4.988,5.197,12.322,5.52,17.263,0.087C-85.192,147.69-84.941,145.195-85.772,143.183z M-91.727,132.473
		c0.247,0.199,0.344,0.367,0.385,0.49c-0.625,0.737-2.074,0.22-2.734-0.04c-0.104-0.041-0.206-0.071-0.306-0.099
		c-0.208-0.345-0.443-0.676-0.732-0.968c-0.065-0.065-0.31-0.333-0.451-0.482c-0.039-0.048-0.075-0.098-0.114-0.146
		C-94.25,131.186-92.867,131.552-91.727,132.473z M-98.074,143.819c-2.376-0.993-4.707-3.705-4.926-6.336
		c-0.124-1.489,0.454-2.736,1.388-3.718c0.639,2.313,2.032,4.165,3.727,5.878c0.318,0.322,0.652,0.496,0.986,0.566
		c0.356,0.627,0.844,1.119,1.476,1.367c2.237,0.881,4.105,0.804,5.596,0.104C-92.136,144.219-94.833,145.174-98.074,143.819z"/>
	<path fill="#FFFFFF" d="M-33.859,118.283c-0.356,0.012-0.668,0.115-0.957,0.254c-1.727-1.541-4.631-0.325-4.617,3.535
		c0.003,0.907,0.014,1.817,0.027,2.728c-0.097-0.23-0.178-0.463-0.292-0.69c-1.28-2.563-3.536-4.77-6.29-5.68
		c-1.914-0.633-3.558-0.176-4.826,0.885c-2.678-3.545-6.22,2.028-4.413,5.502c0.479,0.92,0.736,1.943,0.869,3.016
		c-1.518-2.671-4.106-4.625-7.413-4.949c-3.694-0.363-6.048,1.938-7.098,4.911c-0.458-0.527-1.032-0.903-1.74-1.011
		c-3.853-0.59-6.48,0.381-8.273,2.242c-0.256-1.611-1.253-3.535-2.977-3.492c-2.189,0.053-2.776,2.863-2.824,4.539
		c-0.156,5.479,1.244,10.818,2.135,16.185c0.23,1.392,1.276,3.251,2.908,3.211c2.154-0.054,2.826-2.864,2.824-4.54
		c-0.004-2.299-0.255-4.857,0.354-7.106c0.727-2.689,3.606-2.472,5.925-2.125c-0.716,5.569,0.492,12.931,6.72,13.726
		c3.246,0.415,6.009-2.649,7.654-4.997c0.61-0.871,1.115-1.795,1.543-2.75c-0.478,4.752-1.759,9.36-3.468,13.883
		c-1.461,3.866,3.101,9.879,5.176,4.385c2.368-6.269,3.813-12.603,4.248-19.225c0.092-0.002,0.177,0.015,0.273,0
		c4.354-0.657,7.748-3.755,9.161-7.613c-0.101,0.698-0.085,1.449,0.04,2.172c0.12,7.333,0,14.667-1.418,21.855
		c-0.932,4.721,4.572,8.027,5.715,2.236c1.367-6.928,1.629-13.983,1.589-21.05c5.151-1.17,10.047-2.479,10.813-8.867
		C-21.677,122.658-27.461,118.064-33.859,118.283z M-58.955,135.131c-0.23,0.73-0.537,1.417-0.901,2.087
		c-0.804,1.479-1.826,2.703-3.438,3.275c-2.389,0.849-1.533-3.1-1.146-4.682c0.709-0.988,0.921-2.397,0.85-3.623
		c0.246-0.1,0.696-0.324,0.863-0.375c-0.236,0.07,0.898-0.009,1.175,0.004c0.742,0.033,1.709,0.517,2.316,1.036
		c0.42,0.359,0.226,0.149,0.426,0.607c-0.081-0.225,0.065,0.901,0.064,0.945C-58.748,134.698-58.821,134.705-58.955,135.131z
		 M-44.975,129.93c-0.669,1.022-2.168,1.578-3.355,1.802c0.02-1.195,0.007-2.398-0.062-3.589c0.201-0.293,0.365-0.615,0.479-0.95
		c0.018-0.054,0.03-0.096,0.043-0.139c0.041-0.009,0.089-0.022,0.149-0.046c0.013-0.006,0.658,0.166,0.793,0.211
		c0.99,0.327,1.791,1.051,2.396,1.872C-44.607,129.397-44.767,129.611-44.975,129.93z M-33.453,129.452
		c-0.017-0.745-0.031-1.488-0.046-2.231c1.409-0.027,2.641,0.24,3.951,0.787c0.109,0.047,0.197,0.11,0.297,0.163
		c-0.785,0.388-1.647,0.634-2.484,0.869C-32.302,129.199-32.876,129.33-33.453,129.452z"/>
	<path fill="#FFFFFF" d="M-16.066,113.678c-0.04-1.625-0.921-4.509-3.043-4.395c-0.809,0.043-1.563,0.322-2.276,0.678
		c-1.926,0.959-2.303,3.656-1.913,5.546c0.313,1.519,1.743,3.999,3.685,3.032c0.244-0.121,0.489-0.229,0.741-0.324
		C-16.76,118.087-16.024,115.398-16.066,113.678z"/>
	<path fill="#FFFFFF" d="M-15.691,134.867c1.113-3.521,2.576-6.933,3.779-10.425c1.337-3.88-3.263-9.936-5.176-4.385
		c-2.675,7.761-6.774,15.877-6.009,24.318c0.219,2.421,0.94,5.223,3.063,6.666c2.774,1.886,5.102-0.926,6.686-2.934
		c2.25-2.852-0.657-9.868-3.877-6.688c0.056-0.52,0.13-1.036,0.229-1.551C-16.742,138.16-16.211,136.51-15.691,134.867z"/>
</g>
<g>
	<path fill="#FFFFFF" d="M335.463,43.236c-12.255,3.338-25.739,7.675-34.875,14.042c5.586-16.954,1.277-32.747-24.209-31.604
		c-7.123,0.321-6.605,10.014,0.391,9.699c33.641-1.512,4.535,45.667-13.624,50.918c-6.074,1.756-3.731,11.3,3.147,9.312
		c8.688-2.513,17.801-10.403,24.744-20.026c3.04,8.429,16.078,15.004,31.569,12.789c6.353-0.908,4.514-10.405-3.149-9.312
		c-6.93,0.992-15.139-1.438-18.342-5.301c-2.607-3.146,4.15-7.616,7.244-9.588c8.236-5.249,19.51-8.693,30.252-11.62
		C344.743,50.876,342.455,41.33,335.463,43.236z"/>
	<path fill="#FFFFFF" d="M351.427,76.306c-2.745,1.422-9.317,6.985-12.687,3.051c-0.217-0.254-0.357-0.537-0.437-0.836
		c7.986-2.134,18.842-5.307,18.593-11.497c-0.129-3.209-3.761-6.688-9.292-7.111c-4.575-0.35-8.535,1.696-11.31,3.682
		c-7.123,5.099-10.576,13.556-6.848,19.964c2.071,3.558,6.743,6.574,13.082,6.955c5.725,0.347,10.713-3.951,14.5-5.912
		C361.999,82.026,358.009,72.896,351.427,76.306z M338.59,70.229c1.263-1.284,3.541-2.619,5.909-3.088
		c0.215-0.043,0.412-0.05,0.592-0.034c0.769-0.112,1.685,0.13,1.654,0.751c-0.051,1.03-0.854,1.697-2.048,2.091
		c-0.045,0.037-0.063,0.077-0.122,0.112c-0.486,0.303-1.025,0.462-1.595,0.58c-0.416,0.194-0.871,0.356-1.439,0.445
		c-0.129,0.02-0.239,0.01-0.355,0.01c-0.145,0.042-0.303,0.073-0.494,0.078C339.713,71.82,337.756,71.074,338.59,70.229z"/>
	<path fill="#FFFFFF" d="M393.361,63.094c-9.204-1.668-19.103,0.637-23.812,5.19c-0.095-0.257-0.213-0.512-0.268-0.773
		c-0.376-1.767-3.189-4.21-6.553-3.291c-3.629,0.994-3.833,3.998-3.403,6.021c1.11,5.216,6.604,9.825,12.098,13.697
		c6.353,4.477,11.513-3.857,7.102-6.968c-0.442-0.313-0.897-0.632-1.356-0.955c0.075-0.378,0.097-0.743,0.058-1.066
		c-0.015-0.113-0.036-0.193-0.063-0.249c0.056-0.03,0.109-0.056,0.188-0.111c1.192-0.828,2.75-1.271,4.393-1.684
		c2.778-0.696,6.333-0.94,9.22-0.417C398.427,73.838,399.749,64.25,393.361,63.094z"/>
	<path fill="#FFFFFF" d="M419.9,66.986c-3.332-1.975-8.685-2.097-12.905-2.808c-3.65-0.615-5.824,1.324-6.369,3.606
		c-4.779,2.644-7.072,6.654-6.419,10.705c0.79,4.907,5.251,9.909,14.121,10.22c10.024,0.353,16.423-6.919,17.192-12.098
		C426.062,72.956,424.242,69.556,419.9,66.986z M413.387,77.372c-1.041,0.98-2.778,1.479-4.623,1.622
		c-1.093,0.085-2.231-0.047-3.042-0.4c-1.081-0.473-0.994-0.526-1.193-1.067c0.081,0.223-0.059-0.034,0.309-0.639
		c0.319-0.526,2.002-1.204,3.129-1.547c0.803-0.245,1.452-0.63,1.965-1.104c2.236,0.291,4.416,0.646,5.139,1.064
		c-0.049,0.122-0.113,0.265-0.221,0.458C414.521,76.349,413.938,76.854,413.387,77.372z"/>
	<path fill="#FFFFFF" d="M486.349,69.31c-0.662-3.044-3.45-6.643-7.797-8.347c-5.028-1.97-10.213-1.246-14.586,0.972
		c-2.555-2.767-9.205-1.658-9.442,3.04c-0.021,0.406-0.018,0.812-0.03,1.215c-1.958-2.636-5.784-4.979-10.519-5.514
		c-4.263-0.481-7.806,0.445-10.263,2.192c-1.484-1.275-4.255-1.906-6.411-0.673c-2.958,1.692-2.746,4.52-1.604,6.663
		c3.634,6.824,1.091,14.767,0.966,21.803c-0.105,5.995,10.328,5.771,10.434-0.156c0.044-2.464,0.216-4.919,0.352-7.364
		c5.081,0.015,10.222-0.901,13.866-3.149c1.551-0.957,2.714-2.11,3.535-3.363c0.343,4.436,0.791,8.868,0.859,13.312
		c0.094,5.979,10.524,5.792,10.434-0.157c-0.04-2.565-0.213-5.126-0.412-7.688c5.542,0.833,11.451,0.886,15.919-1.632
		C486.605,77.669,487.179,73.127,486.349,69.31z M445.566,71.773c-0.327,0.185-1.051,0.611-0.796,0.506
		c-2.225,0.914-4.79,1.174-7.391,1.175c-0.016-0.146-0.037-0.29-0.057-0.436c0.078-0.027,0.148-0.068,0.225-0.098
		c-0.267-0.09-0.487-0.241-0.582-0.482c-0.439-1.121,2.293-1.912,3.675-2.222c0.256-0.059,0.478-0.055,0.681-0.027
		c0.294,0.007,1.183,0.019,1.033-0.024c1.091,0.144,1.943,0.422,2.467,0.659c0.029,0.012,1.397,0.881,0.75,0.395
		c0.127,0.094,0.208,0.15,0.281,0.197C445.772,71.433,445.479,71.778,445.566,71.773z M476.271,71.949
		c-0.052,0.063-0.108,0.126-0.164,0.184c-0.024,0.015-0.031,0.017-0.061,0.035c-0.204,0.128-0.292,0.193-0.339,0.236
		c-0.085,0.016-0.224,0.051-0.505,0.14c-0.408,0.13-0.846,0.22-1.28,0.31c-0.064,0.014-0.083,0.019-0.133,0.029
		c-0.084,0.001-0.213,0.008-0.459,0.029c-2.202,0.188-4.357-0.05-6.466-0.412c-0.667-0.114-1.281-0.139-1.848-0.097
		c-0.024-0.44-0.054-0.881-0.071-1.323c0.066,0.02,0.135,0.031,0.201,0.049c0.089-0.252,0.36-0.475,0.906-0.551
		c1.42-0.2,2.793-0.495,4.151-0.815c0.245-0.058,0.46-0.059,0.658-0.036c0.439-0.104,1.04-0.232,1.121-0.272
		c0.36-0.025,0.72-0.032,1.083-0.022c-0.258,0.012,0.429,0.116,1,0.227c0.207,0.098,0.75,0.314,1.002,0.444
		c0.174,0.138,0.348,0.276,0.511,0.421c0.067,0.06,0.125,0.11,0.174,0.15c0.035,0.059,0.084,0.13,0.16,0.235
		c0.081,0.109,0.14,0.223,0.208,0.334c0.047,0.1,0.093,0.2,0.12,0.274c0.021,0.061,0.039,0.105,0.057,0.151
		c0.002,0.041,0.004,0.077,0.007,0.13c0.002,0.032,0.005,0.052,0.007,0.078C476.299,71.901,476.284,71.927,476.271,71.949z"/>
	<path fill="#FFFFFF" d="M497.771,49.814c-1.771-0.746-3.383-1.199-5.575-1.22c-1.205-0.011-2.396,0.217-3.604,0.237
		c-3.784,0.059-5.096,3.104-5.022,4.926c0.074,1.814,1.629,4.831,5.412,4.77c0.263-0.003,0.524-0.023,0.786-0.04
		c0.665,0.18,1.301,0.398,2.002,0.521c1.78,0.309,3.435,0.159,5.112-0.312c2.129-0.597,3.17-2.116,3.506-3.441
		C500.818,53.567,500.333,50.896,497.771,49.814z"/>
	<path fill="#FFFFFF" d="M498.447,73.248c-0.025-0.832,0.03-1.667,0.093-2.491c0.121-1.608,0.737-4.563,0.796-6.663
		c0.051-1.818-1.715-4.826-5.411-4.771c-3.868,0.06-4.969,3.109-5.022,4.928c-0.005,0.215-0.006,0.333-0.003,0.398
		c-0.017,0.079-0.049,0.259-0.103,0.64c-0.123,0.876-0.255,1.751-0.372,2.63c-0.296,2.259-0.565,4.538-0.289,6.805
		c0.478,3.907,3.138,9.107,11.116,7.854C504.887,81.69,504.029,74.11,498.447,73.248z"/>
</g>
<path fill="#FFFFFF" d="M79.658,163.717c-12.686,3.818-29.854,1.775-39.514,13.804c-0.158,0.195-0.29,0.392-0.439,0.587
	c3.902-9.382,6.303-19.721,4.549-30.057c-2.883-16.996-17.521-15.068-28.015-8.803c-4.623,2.76-2.736,16.632,2.441,13.541
	c4.604-2.75,16.436-9.139,18.093,0.632c1.209,7.131-3.227,15.797-6.221,21.829c-3.349,6.749-7.213,13.356-12.03,18.846
	c-4.868,5.547-6.801,4.536-7.359-3.2c-0.617-8.552-8.716-8.484-8.087,0.228c0.618,8.569,3.294,25.277,14.112,19.834
	c8.112-4.083,14.108-15.684,18.527-24.382c-2.442,12.583,10.076,23.703,20.106,28.63c5.407,2.656,6.649-11.31,1.858-13.661
	c-4.652-2.286-9.634-4.911-13.006-9.395c-2.786-3.704,6.209-7.479,8.426-8.388c9.306-3.81,19.485-3.641,28.998-6.503
	C87.021,175.774,85.548,161.943,79.658,163.717z"/>
<path fill="#FFFFFF" d="M99.715,202.256c-2.984,3.604-8.152,6.744-15.898,4.777c-0.924-0.235-1.754-0.54-2.513-0.89
	c17.229-3.561,26.828-13.676,16.229-22.703c-10.337-8.806-28.862,3.452-32.1,8.73c-4.742,7.727-0.639,17.417,11.37,22.721
	c14.346,6.336,27.696-0.953,33.467-7.927C113.671,202.856,104.492,196.482,99.715,202.256z M88.462,190.212
	c2.938-0.083,0.688,2.492,0.068,3.017c-2.611,2.211-8.358,3.318-12.804,4.078C76.796,194.15,82.516,190.379,88.462,190.212z"/>
<path fill="#FFFFFF" d="M134.898,186.239c-10.608-5.892-18.825-1.271-24.103,7.226c-0.174-1.959-0.396-3.915-0.681-5.868
	c-1.084-7.432-7.204-2.724-6.342,3.187c0.997,6.839,0.979,13.771,0.98,20.684c0.003,5.724,5.482,7.581,6.561,1.326
	c2.23-12.938,10.191-22.174,22.057-15.582C137.628,199.575,138.732,188.37,134.898,186.239z"/>
<path fill="#FFFFFF" d="M170.59,195.005c0.381-11.409-9.878-11.825-17.094-7.286c-1.313-4.575-3.732-9.27-8.584-9.408
	c-5.526-0.158-9.037,6.396-10.943,11.214c-5.126,12.956,3.876,26.959,16.037,27.038C158.77,216.621,170.267,204.709,170.59,195.005z
	 M164.901,196.674c-2.012,4.438-7.207,9.413-11.543,10.832c-6.659,2.18-13.925-3.555-15.134-10.496
	c-0.585-3.351,1.244-8.149,4.281-9.589c3.221-1.526,5.149,2.227,5.98,5.1c-0.065,0.101-0.138,0.199-0.201,0.302
	c-2.149,3.493,0.687,10.15,3.721,5.216c1.626-2.643,4.798-3.776,7.458-4.353C161.461,193.252,166.003,194.242,164.901,196.674z"/>
<path fill="#FFFFFF" d="M199.128,180.902c-2.6-3.951-7.542-6.918-15.295-6.604c-5.351,0.216-9.673,2.213-12.409,4.748
	c-1.576-0.78-3.915-0.457-5.087,0.631c-1.709,1.585-1.332,3.625,0.219,5.179c3.964,3.971,3.666,9.615,3.551,14.025
	c-0.115,4.546-0.85,10.057-5.192,13.99c-2.855,2.586,1.968,8.848,6.11,5.096c5.327-4.824,6.73-10.935,7.237-16.653
	C192.154,198.148,205.142,190.042,199.128,180.902z M178.385,193.64c-0.229-2.706-0.824-5.441-2.008-8.05
	c0.091-0.11,0.173-0.222,0.242-0.337c2.537-4.262,15.005-5.39,15.567,0.209C192.547,189.053,184.667,191.987,178.385,193.64z"/>
<path fill="#FFFFFF" d="M227.419,177.619c-2.6-3.95-7.542-6.916-15.295-6.603c-5.351,0.217-9.673,2.214-12.409,4.749
	c-1.576-0.781-3.915-0.457-5.087,0.631c-1.709,1.586-1.332,3.625,0.219,5.178c3.964,3.971,3.666,9.616,3.551,14.026
	c-0.115,4.546-0.85,10.057-5.192,13.99c-2.855,2.584,1.968,8.848,6.11,5.096c5.327-4.824,6.73-10.935,7.237-16.653
	C220.445,194.867,233.433,186.76,227.419,177.619z M206.676,190.358c-0.23-2.707-0.824-5.442-2.008-8.05
	c0.091-0.111,0.173-0.222,0.242-0.337c2.537-4.263,15.005-5.39,15.567,0.208C220.838,185.771,212.958,188.705,206.676,190.358z"/>
<path fill="#FFFFFF" d="M236.603,167.183c-0.511-0.829-1.388-1.67-2.685-2.01c-1.186-0.311-2.443-0.067-3.346,0.506
	c-0.232,0.147-0.485,0.278-0.743,0.403c-0.775,0.337-1.564,0.672-2.232,1.097c-2.341,1.489-2.507,4.244-1.343,6.139
	c0.51,0.829,1.388,1.67,2.684,2.01c1.186,0.311,2.444,0.067,3.347-0.506c0.232-0.147,0.485-0.278,0.742-0.403
	c0.775-0.337,1.564-0.672,2.233-1.097C237.601,171.832,237.766,169.077,236.603,167.183z"/>
<path fill="#FFFFFF" d="M244.137,192.106c-2.355-1.345-5.152-0.003-5.912,1.701c-0.622,1.393-1.206,2.759-2.203,3.913
	c-0.505-5.231,0.651-10.595,0.747-15.793c0.101-5.523-8.63-5.314-8.729,0.145c-0.145,7.896-2.159,15.927,0.944,23.685
	c0.646,1.62,2.415,3.859,5.482,3.032c6.686-1.805,9.51-6.226,11.46-10.597C246.808,196.216,246.679,193.557,244.137,192.106z"/>
<g>
	<path fill-rule="evenodd" clip-rule="evenodd" fill="#FFFFFF" d="M54.564,82.052c1.745-3.604,3.425-7.139,5.172-10.64
		c0.515-1.031,0.699-1.848-0.185-2.829c-0.82-0.91-0.966-2.187-1.173-3.38c-0.125-0.721-0.221-1.448-0.361-2.167
		c-0.316-1.62-0.142-2.057,1.29-2.979c1.087-0.7,2.262-1.208,3.534-1.444c3.603-0.667,7.04-2.017,10.671-2.561
		c3.259-0.488,6.516-0.98,9.773-1.47c0.371-0.056,0.725-0.035,1.053,0.191c0.144,0.1,0.405,0.24,0.485,0.184
		c1.176-0.84,1.661,0.193,2.328,0.805c0.402,0.368,0.859,0.688,1.323,0.975c1.715,1.064,1.901,2.471,0.576,4.082
		c-1.336,1.625-3.162,2.327-5.116,2.75c-1.967,0.426-3.959,0.731-5.932,1.13c-0.604,0.121-1.236,0.279-1.762,0.582
		c-1.504,0.865-3.186,0.913-4.822,1.143c-0.82,0.115-1.534,0.502-2.248,0.821c-0.564,0.254-0.104,0.993-0.154,1.513
		c-0.046,0.484,0.303,0.712,0.753,0.777c0.913,0.133,1.83,0.104,2.744,0.042c2.117-0.145,4.233-0.306,6.351-0.463
		c0.263-0.02,0.48-0.025,0.64,0.271c0.804,1.501,1.899,2.68,3.572,3.246c0.688,0.233,0.927,1.899,0.272,2.399
		c-2.717,2.076-5.482,4.089-9.162,3.969c-2.29-0.074-4.59,0.137-6.867-0.242c-0.416-0.068-0.686,0.111-0.921,0.445
		c-1.083,1.531-1.923,3.194-2.676,4.903c-0.194,0.442-0.116,0.752,0.468,0.839c1.423,0.214,2.84,0.241,4.27,0.084
		c2.256-0.248,4.506-0.52,6.781-0.631c1.688-0.081,3.277-0.963,5.001-1.09c0.106-0.008,0.214-0.053,0.315-0.096
		c1.424-0.611,2.494-0.254,3.299,1.093c0.294,0.492,0.762,0.888,1.367,1.051c0.167,0.046,0.354,0.135,0.463,0.263
		c0.492,0.581,0.427,1.423,0.943,2.039c0.122,0.146-0.347,0.821-0.585,1.229c-1.384,2.363-3.623,3.438-6.167,3.984
		c-1.896,0.408-3.816,1.011-5.724,1.001c-3.901-0.02-7.728,1.252-11.648,0.593c-0.722-0.122-1.446-0.233-2.161-0.385
		c-2.887-0.609-4.85-2.775-5.266-6.173c-0.092-0.758-0.262-1.506-0.436-2.479c-0.859,1.719-2.012,2.9-3.381,3.879
		c-1.189,0.851-2.471,1.293-3.982,1.261c-3.271-0.069-6.514-0.21-9.611-1.412c-0.446-0.173-0.895-0.303-1.105-0.811
		c-0.14-0.337-0.491-0.508-0.809-0.477c-1.488,0.149-2.605-0.655-3.701-1.438c-2.501-1.786-5.042-3.528-6.992-5.972
		c-0.553-0.693-1.254-0.746-2.024-0.191c-2.319,1.67-3.776,4.059-5.371,6.335c-0.987,1.409-1.948,2.837-2.963,4.226
		c-1.073,1.468-2.39,2.671-4.052,3.462c-0.371,0.177-0.779,0.427-1.149,0.244c-1.511-0.748-3.323-1.135-3.778-3.19
		c-0.146-0.662-0.588-1.254-0.84-1.898c-0.282-0.723-0.877-1.411-0.366-2.263c0.12-0.2,0.029-0.419-0.087-0.489
		c-0.748-0.457-0.486-1.351-0.764-1.841c-0.817-1.442,0.361-2.625,0.127-3.915c-0.006-0.033,0.006-0.094,0.027-0.104
		c1.275-0.59,0.844-1.84,0.996-2.798c0.77-4.854,2.674-9.334,4.439-13.859c1.184-3.033,2.355-6.067,3.086-9.251
		c0.254-1.104,1.204-1.799,1.627-2.828c0.637-1.552,1.315-3.102,2.316-4.474c1.279-1.751,2.278-2.038,3.799-1.23
		c0.5,0.266,1.066,0.5,1.677,0.476c0.072-0.002,0.188-0.01,0.212,0.029c0.714,1.135,2.119,1.198,3.037,1.947
		c1.03,0.841,1.553,2.108,1.838,3.427c0.292,1.355,0.03,2.545-1.086,3.463c-0.11,0.092-0.314,0.17-0.326,0.27
		c-0.262,2.336-2.348,3.826-2.803,6.063c-0.149,0.735-0.486,1.45-0.367,2.282c0.716-0.226,1.047-0.845,1.565-1.222
		c2.661-1.94,5.363-3.83,7.966-5.847c2.664-2.067,5.379-4.049,8.283-5.767c0.527-0.313,0.998-0.77,1.705-0.537
		c0.109,0.037,0.381-0.084,0.379-0.092c-0.258-1.275,0.93-0.99,1.482-1.387c1.49-1.073,2.488-0.801,3.82,0.611
		c0.916,0.972,2.123,1.894,3.299,2.715c1.602,1.118,1.666,2.066,0.979,3.841c-1.056,2.726-3.551,3.771-5.688,5.22
		c-2.447,1.662-5.243,2.83-7.465,4.796c-1.557,1.378-3.363,2.449-4.764,4.021c-0.426,0.479-1.144,0.674-1.668,1.146
		c-0.738,0.664-0.697,1.192-0.221,1.982c1.82,3.024,4.704,4.284,7.973,4.893c2.789,0.52,5.705,0.848,8.416,0.308
		c2.832-0.563,4.133,1.053,5.735,2.573C54.197,81.727,54.335,81.846,54.564,82.052z"/>
	<path fill-rule="evenodd" clip-rule="evenodd" fill="#FFFFFF" d="M249.66,61.19c-0.006,1.226,0.011,2.344,0.822,3.291
		c0.34,0.397-0.02,0.85-0.162,1.239c-1.334,3.638-2.602,7.294-3.384,11.101c-0.848,4.122-1.099,8.258-0.37,12.43
		c0.284,1.628,0.146,3.21-1.29,4.286c-1.495,1.122-3.236,1.252-5.021,0.854c-0.537-0.12-0.669-0.669-0.856-1.078
		c-1.12-2.432-1.728-5.033-2.527-7.575c-0.45-1.434,0.007-2.729,0.063-4.086c0.113-2.738,0.072-5.496,0.853-8.164
		c0.585-1.997,1.212-3.982,1.781-5.983c0.289-1.016,0.586-2.043,0.234-3.123c-0.073-0.225-0.069-0.545,0.039-0.746
		c1.041-1.926,1.514-4.05,2.185-6.104c0.056-0.171,0.074-0.389,0.191-0.5c1.102-1.063,2.131-2.225,3.653-2.733
		c0.883-0.295,1.501-0.146,1.725,0.86c0.086,0.392,0.237,0.77,0.313,1.162c0.229,1.188,0.426,2.363,1.485,3.19
		C249.97,59.961,249.529,60.69,249.66,61.19z"/>
	<path fill-rule="evenodd" clip-rule="evenodd" fill="#FFFFFF" d="M122.953,89.122c-0.327-0.858-0.729-1.845-1.882-1.918
		c-3.496-0.225-6.832-1.22-10.187-2.106c-2.047-0.54-3.745-1.813-5.475-2.971c-0.775-0.518-0.679-0.85,0.25-1.17
		c1.519-0.523,3.05-1.011,4.572-1.523c3.07-1.033,6.1-2.173,8.274-4.733c1.38-1.625,1.919-3.478,1.56-5.689
		c-0.275-1.696-1-3.188-1.559-4.752c-0.828-2.321-1.857-4.562-3.995-6.044c-0.088-0.061-0.167-0.148-0.226-0.238
		c-1.183-1.832-3.187-2.648-4.825-3.916c-0.389-0.301-0.825-0.265-1.262-0.175c-1.311,0.269-2.505,0.778-3.532,1.662
		c-1.624,1.397-2.938,3.06-4.188,4.783c-1.028,1.418-1.987,2.889-3.306,4.083c-0.521,0.473-0.871,0.633-1.57,0.231
		c-1.396-0.802-1.973-0.535-2.502,0.998c-0.549,1.592-0.821,3.256-1.176,4.897c-0.517,2.393-1.347,4.74-1.74,7.12
		c-0.485,2.934-0.875,5.875-1.595,8.769c-0.152,0.616-0.526,1.421-0.138,1.921c1.047,1.349,0.716,3.149,1.85,4.536
		c1.374,1.683,4.023,1.916,5.326,0.103c1.067-1.484,1.656-3.18,2.1-4.914c0.251-0.983,0.532-0.82,1.118-0.297
		c1.009,0.899,1.993,1.836,3.161,2.541c3.15,1.9,6.596,3.112,10.048,4.307c2.078,0.719,4.187,1.308,6.106,1.498
		c2.572,0.043,3.686-0.543,4.81-2.065c0.411-0.557-0.02-1.047,0.203-1.525C123.723,91.357,123.366,90.204,122.953,89.122z
		 M101.9,71.896c0.459-1.472,1.373-2.642,2.4-3.74c0.846-0.906,1.814-1.698,2.553-2.706c0.237-0.324,0.494-0.477,0.926-0.328
		c1.31,0.448,3.071,2.732,3.138,4.074c0.063,0.444-0.166,0.647-0.5,0.778c-2.537,1.001-4.984,2.238-7.694,2.775
		C101.863,72.919,101.637,72.743,101.9,71.896z"/>
	<path fill-rule="evenodd" clip-rule="evenodd" fill="#FFFFFF" d="M160.483,73.742c-0.44-1.531-1.627-2.866-2.15-4.422
		c-0.751-2.229-2.538-3.969-2.848-6.433c-0.068-0.547-0.256-0.88,0.082-1.424c0.938-1.511,0.478-2.909-0.805-4.068
		c-0.794-0.719-1.753-1.354-2.297-2.313c-1.303-2.297-3.871-2.488-5.356-0.32c-0.361,0.527-0.763,0.768-1.354,0.699
		c-0.756-0.088-1.303,0.247-1.638,0.859c-0.655,1.197-1.86,1.863-2.76,2.814c-1.17,1.236-2.875,1.943-4.126,3.187
		c-1.68,1.669-3.621,3.06-5.194,4.842c-2.741,3.106-5.372,6.28-6.837,10.252c-1.101,2.984-1.818,6.12-0.856,9.129
		c1.058,3.312,3.324,5.868,6.737,7.232c2.694,1.077,5.525,0.358,7.554,0.785c3.195,0.27,5.491-0.798,7.921-1.085
		c2.947-0.35,5.528-2.019,8.371-2.85c1.317-0.385,2.481-1.375,3.645-2.191c2.546-1.789,4.083-4.171,3.981-7.391
		C162.473,78.451,161.181,76.172,160.483,73.742z M151.722,81.158c-2.026,1.003-3.912,2.351-6.151,2.844
		c-2.782,0.613-5.619,0.924-8.455,1.196c-1.22-0.021-2.403-0.147-3.535-0.658c-0.65-0.294-0.954-0.659-0.848-1.433
		c0.098-0.702,0.295-1.354,0.568-1.99c0.946-2.203,2.462-4.081,3.847-5.975c0.891-1.218,2.127-2.364,3.413-3.327
		c1.229-0.921,2.431-1.88,3.643-2.824c0.415-0.323,0.783-0.551,1.381-0.269c0.66,0.312,1.32,0.363,1.991-0.285
		c0.723-0.699,1.441-0.466,1.97,0.4c1.43,2.338,2.442,4.893,3.865,7.245C154.637,78.112,153.848,80.106,151.722,81.158z"/>
	<path fill-rule="evenodd" clip-rule="evenodd" fill="#FFFFFF" d="M197.903,59.463c-1.313-2.799-3.5-4.113-6.272-4.99
		c-2.238-0.707-4.51-0.373-6.756-0.577c-0.403,0-0.812-0.044-1.208,0.007c-6.467,0.822-10.962,5.356-12.337,11.83
		c-0.252,1.187-0.829,1.829-2.156,2.176c-0.19,0.05-0.385,0.219-0.503,0.385c-1.235,1.729-2.511,3.443-2.791,5.642
		c-0.064,0.507,0.084,1.104-0.134,1.518c-0.776,1.474,0.169,2.663,0.673,3.822c0.326,0.75,0.634,1.427,0.656,2.244
		c0.071,2.649-1.349,5.007-1.472,7.648c-0.035,0.744-0.124,1.384,0.229,2.021c0.389,0.702,0.878,1.352,1.237,2.066
		c0.655,1.304,1.646,1.778,3.114,1.42c0.641-0.156,1.295-0.426,1.931-0.395c1.232,0.061,1.729-0.677,2.19-1.607
		c1.523-3.071,1.913-6.348,1.766-9.714c-0.035-0.802,0.039-1.283,1-1.438c2.095-0.336,4.172-0.781,6.248-1.221
		c4.053-0.857,8.09-1.807,11.704-3.932c2.285-1.344,4.417-2.842,4.942-5.793C200.677,66.584,199.575,63.028,197.903,59.463z
		 M190.983,67.098c-1.091,0.817-2.481,0.837-3.677,1.356c-2.425,1.055-5.03,1.432-7.542,2.153c-0.497,0.143-0.752-0.058-1.052-0.311
		c-0.3-0.254-0.258-0.551-0.117-0.889c0.35-0.842,0.684-1.691,0.997-2.547c0.358-0.974,1.231-1.361,2.065-1.669
		c3.192-1.177,6.312-0.9,9.316,0.684c0.256,0.135,0.548,0.242,0.576,0.616C191.514,66.82,191.208,66.931,190.983,67.098z"/>
	<path fill-rule="evenodd" clip-rule="evenodd" fill="#FFFFFF" d="M234.73,66.271c-0.279-2.71-1.384-5.116-2.593-7.521
		c-0.98-1.951-2.559-2.976-4.469-3.796c-2.619-1.125-5.362-1.005-8.421-1.095c-3.347-0.002-6.464,1.402-9.067,3.891
		c-2.252,2.154-3.525,4.89-4.223,7.912c-0.269,1.163-0.682,2.233-2.195,2.237c-0.185,0.001-0.378,0.314-0.551,0.498
		c-2.077,2.204-2.523,5.08-3.218,7.852c-0.03,0.121,0.04,0.283,0.1,0.409c0.497,1.057,0.417,2.342,1.342,3.247
		c0.216,0.211,0.196,0.688,0.233,1.049c0.291,2.896-1.356,5.457-1.468,8.307c-0.021,0.567-0.183,1.101,0.105,1.619
		c0.497,0.894,1.073,1.744,1.527,2.657c0.366,0.734,1.618,1.49,2.415,1.313c0.678-0.151,1.354-0.465,2.026-0.453
		c1.947,0.033,2.583-1.307,3.15-2.775c0.065-0.17,0.129-0.34,0.189-0.512c0.934-2.698,1.256-5.477,1.102-8.318
		c-0.03-0.555-0.094-1.07,0.722-1.214c2.161-0.379,4.312-0.825,6.461-1.271c4.092-0.851,8.161-1.815,11.806-3.958
		C233.92,73.871,235.29,71.708,234.73,66.271z M225.582,67.131c-1.043,0.755-2.341,0.8-3.475,1.284
		c-2.494,1.064-5.167,1.472-7.75,2.204c-0.445,0.126-0.691-0.042-0.963-0.272c-0.277-0.235-0.34-0.517-0.19-0.882
		c0.387-0.944,0.646-1.952,1.126-2.844c0.532-0.99,1.603-1.373,2.612-1.672c1.045-0.311,2.137-0.485,3.41-0.503
		c1.7,0.158,3.534,0.437,5.192,1.392C226.396,66.328,226.389,66.548,225.582,67.131z"/>
</g>
<path fill="#FFFFFF" d="M229.65,38.743c0.317-1.336,1.216-3.309,2.908-3.21c2.677,0.156,4.939,1.206,7.052,2.601
	c1.051-3.062,2.956-5.754,6.165-6.46c2.134-0.47,3.16,1.359,3.531,3.209c1.196,5.953-0.977,12.45-5.472,16.513
	c-0.493,0.445-1.004,0.605-1.493,0.569c-0.604,0.485-1.369,0.659-2.278,0.325c-2.736-1.006-5.389-1.902-7.733-3.692
	C229.393,46.353,228.852,42.099,229.65,38.743z"/>
</svg>
