<?xml version="1.0" encoding="utf-8"?>
<!-- Generator: Adobe Illustrator 16.0.0, SVG Export Plug-In . SVG Version: 6.00 Build 0)  -->
<!DOCTYPE svg PUBLIC "-//W3C//DTD SVG 1.1//EN" "http://www.w3.org/Graphics/SVG/1.1/DTD/svg11.dtd">
<svg version="1.1" id="Layer_1" xmlns="http://www.w3.org/2000/svg" xmlns:xlink="http://www.w3.org/1999/xlink" x="0px" y="0px"
	 width="165.721px" height="44.713px" viewBox="0 0 165.721 44.713" enable-background="new 0 0 165.721 44.713"
	 xml:space="preserve">
<g transform="translate(-667 -42.688)">
	<g transform="translate(667 42.688)">
		<path fill="#FFFFFF" d="M65.643,32.147c-0.153-0.299-0.52-0.416-0.817-0.262c-0.041,0.021-0.08,0.047-0.115,0.077
			c-2.238,2.624-3.825,5.065-6.063,7.601c-0.653,0.553-1.353,1.242-2.286,1.058c-1.211-0.092-1.863-1.243-2.424-2.117
			c-0.652-1.151-1.322-2.245-2.053-3.58c-0.086-0.26-0.262-0.286-0.436-0.028c-2.846,3.131-6.047,7.061-10.942,5.634
			c-2.966-0.839-5.227-3.247-5.875-6.261c-1.612-7.752,1.801-15.682,8.537-19.84c3.152-1.83,9-1.842,12.031,0.874
			c0.982,1.139,1.316,2.7,0.886,4.142c-0.286,1.213-1.25,2.149-2.47,2.4c-2.753,0.551-5.601-2.279-7.557-0.6
			c-2.979,2.296-4.551,5.976-4.149,9.715c0.104,0.532,0.502,0.958,1.024,1.101c1.727,0.322,2.834-1.651,3.824-2.808
			c1.283-1.548,3.078-5.8,6.3-4.373c1.662,1.388,1.4,1.358,2.915,3.257c0.7,0.922,1.107,0.922,1.467,0.564l7.043-8.609
			c0.59-0.736,1.564-1.045,2.471-0.782l0.84,0.6c1.5,2.158,2.053,3.109,3.336,5.294c0.64,1.237,0.846,1.5,1.457,0.547
			c1.399-1.75,4.517-6.561,5.794-6.624c1.521-0.024,2.192,1.519,2.891,2.625c1.585,2.484,2.8,5.339,4.665,7.6
			c0.843,0.519,1.118-0.32,1.443-0.873c0.903-1.711,1.563-3.54,1.96-5.434c-1.71-0.759-2.935-2.313-3.271-4.154
			c-0.292-2.048,0.686-4.069,2.474-5.11c1.827-1.014,4.048-1.014,5.875,0c1.118,0.551,1.444,1.656,2.051,2.625
			c3.264-0.094,7.508-1.152,10.214,0.735c0.975,0.954,1.499,2.275,1.444,3.638l-0.325,9.989c-0.011,0.559,0.28,0.646,0.653,0.735
			c1.572-0.138,3.052-0.803,4.199-1.886c-0.133-3.736,0.039-7.479,0.515-11.187c0.171-1.023,0.809-1.907,1.725-2.393
			c1.353-0.6,3.451-0.784,4.71,0.184c2.613,2.025,1.073,6.122,1.353,9.115c-0.204,1.873-0.125,3.766,0.233,5.616
			c0.326,0.506,0.507,0.632,1.679,0.321c0.938-0.297,1.821-0.748,2.61-1.336c-1.118-5.66-1.118-12.752,3.405-16.666
			c2.728-2.473,6.562-3.313,10.073-2.209c1.453,0.45,2.823,1.134,4.057,2.025c1.4-0.369,2.611-1.15,4.011-1.656
			c3.731-1.75,9.326-2.209,12.917,0.184c3.437,2.04,5.611,5.676,5.784,9.668c-0.421,10.173-9.14,17.585-17.489,21.592
			c-3.963,1.7-9.979,3.038-13.8,0.137c-2.252-1.488-4.133-3.472-5.5-5.8l-0.419,0.045c-3.776,1.7-8.3,4.42-12.545,2.164
			c-0.783-0.52-1.438-1.213-1.912-2.025c-1.073,0.414-2.189,1.059-3.31,1.52c-2.473,1.105-5.923,2.164-8.443,0.369
			c-4.709-3.36-1.537-10.176-2.283-15.192c-0.886-0.876-2.47-0.415-3.544-0.231c-1.771,5.756-3.078,12.339-8.161,16.021
			c-1.299,0.7-2.867,0.684-4.15-0.045c-2.7-1.842-3.271-4.3-5.369-6.929c-1.224-1.554-2.174,0.024-2.915,1.209
			c-1.563,2.382-2.185,3.567-4.213,6.272c-0.333,0.547-1.3,0.719-1.907-0.289C69.147,39.008,66.11,32.851,65.643,32.147z
			 M156.86,23.677c0.361-1.369-0.07-2.824-1.119-3.775c-2.333-1.749-5.037,0.092-7.137,1.013c-2.983,1.548-4.941,3.82-8.3,3.314
			c-1.469-0.586-2.529-1.893-2.8-3.452c-0.11-0.468-0.126-0.953-0.046-1.427c-1.273-0.356-2.633,0.124-3.4,1.2
			c-1.864,3.315-0.606,8.379,1.259,11.692c1.26,1.8,2.75,4.742,5.601,4.189c4.446-1.203,8.53-3.479,11.892-6.629
			C154.75,28.221,156.163,26.083,156.86,23.677L156.86,23.677z"/>
		<path fill="#FFFFFF" d="M120.111,13.043c-1.594,0.871-3.496,0.973-5.174,0.277c-1.213-0.692-2.8-1.888-2.846-3.591
			c-0.105-1.499,0.52-2.956,1.678-3.913c1.401-1.086,3.214-1.491,4.944-1.106c1.992,0.443,3.499,2.078,3.776,4.1
			C122.592,10.564,121.662,12.218,120.111,13.043z"/>
		<path fill="#FFFFFF" d="M32.253,10.694c-3.265,1.427-4.8-2.393-7.462-2.946c-3.87-0.782-7.74,0.461-10.959,2.117
			c-1.323,0.771-3.422,1.895-3.171,3.454c0.3,1.461,3.076,2.209,4.757,2.946c4.476,1.749,9.278,2.762,13.477,5.339
			c2.782,1.708,4.257,4.927,3.731,8.149c-0.7,6.492-6.668,10.544-12.358,12.477c-5.457,1.566-12.265,1.151-16.835-1.979
			c-2.756-1.857-4.015-5.27-3.125-8.472c0.814-2.107,2.782-3.545,5.037-3.682c1.521-0.215,3.035,0.442,3.918,1.7
			c1,1.64-0.373,3.728,1.3,4.787c1.493,1.427,4.012,1.245,6.063,1.015c3.171-0.738,6.576-2.578,7.789-5.664
			c0.213-0.824-0.058-1.697-0.7-2.256c-1.909-1.09-3.945-1.939-6.063-2.531c-5.6-2.532-13.15-2.717-16.229-8.609
			c-1.075-3.283-0.084-6.89,2.518-9.162c6.157-5.09,13.984-7.715,21.965-7.366c3.545,0.323,7.463,1.613,8.953,4.926
			c0.878,2.294-0.271,4.866-2.566,5.743C32.28,10.684,32.266,10.689,32.253,10.694z"/>
	</g>
</g>
</svg>
