<svg xmlns="http://www.w3.org/2000/svg" width="165.721" height="44.713" viewBox="0 0 165.721 44.713"><g transform="translate(-667 -42.688)"><g transform="translate(667 42.688)"><path d="M194.574,385.419a.607.607,0,0,0-.933-.184c-2.238,2.624-3.825,5.065-6.062,7.6-.654.553-1.353,1.242-2.286,1.058-1.211-.092-1.864-1.243-2.424-2.117-.653-1.152-1.323-2.245-2.053-3.58-.086-.26-.262-.287-.436-.029-2.845,3.131-6.046,7.061-10.942,5.634a8.328,8.328,0,0,1-5.875-6.261A18.814,18.814,0,0,1,172.1,367.7c3.153-1.83,9-1.842,12.031.874a4.407,4.407,0,0,1,.886,4.142,3.2,3.2,0,0,1-2.47,2.4c-2.752.551-5.6-2.279-7.556-.6a10.812,10.812,0,0,0-4.15,9.715,1.425,1.425,0,0,0,1.025,1.1c1.726.323,2.834-1.651,3.824-2.807,1.283-1.548,3.078-5.8,6.3-4.373,1.662,1.387,1.4,1.358,2.915,3.257.7.921,1.107.921,1.467.564l7.043-8.609a2.33,2.33,0,0,1,2.47-.782l.84.6c1.5,2.158,2.053,3.109,3.336,5.294.64,1.238.846,1.5,1.457.547,1.4-1.75,4.517-6.561,5.794-6.624,1.521-.024,2.192,1.519,2.891,2.625,1.585,2.485,2.8,5.339,4.665,7.6.843.518,1.118-.321,1.443-.874a20.783,20.783,0,0,0,1.96-5.433A5.659,5.659,0,0,1,215,372.162a5.081,5.081,0,0,1,2.473-5.11,6.056,6.056,0,0,1,5.875,0c1.118.551,1.445,1.656,2.051,2.625,3.264-.094,7.508-1.152,10.214.735a4.818,4.818,0,0,1,1.444,3.638l-.325,9.989c-.011.558.28.645.653.735a7.016,7.016,0,0,0,4.2-1.886,68.755,68.755,0,0,1,.514-11.187,3.332,3.332,0,0,1,1.725-2.393c1.352-.6,3.451-.784,4.71.184,2.613,2.025,1.073,6.122,1.352,9.115a18.813,18.813,0,0,0,.234,5.616c.326.506.507.632,1.678.321a8.813,8.813,0,0,0,2.611-1.335c-1.118-5.661-1.118-12.753,3.405-16.666a10.367,10.367,0,0,1,10.073-2.209,13.984,13.984,0,0,1,4.057,2.025c1.4-.369,2.611-1.15,4.011-1.656,3.731-1.75,9.326-2.209,12.917.184a11.838,11.838,0,0,1,5.784,9.668c-.421,10.173-9.14,17.585-17.489,21.592-3.963,1.7-9.98,3.038-13.8.137a17.686,17.686,0,0,1-5.5-5.8l-.419.045c-3.777,1.7-8.3,4.42-12.545,2.164a6.158,6.158,0,0,1-1.912-2.025c-1.073.413-2.19,1.058-3.31,1.519-2.472,1.106-5.923,2.164-8.443.369-4.709-3.36-1.537-10.175-2.283-15.192-.886-.876-2.47-.415-3.544-.231-1.771,5.755-3.078,12.338-8.161,16.021a4.291,4.291,0,0,1-4.151-.045c-2.7-1.842-3.27-4.3-5.369-6.929-1.224-1.553-2.174.024-2.915,1.209-1.563,2.382-2.185,3.567-4.213,6.273-.333.546-1.3.719-1.907-.289C198.078,392.28,195.041,386.122,194.574,385.419Zm91.217-8.47a3.789,3.789,0,0,0-1.12-3.775c-2.333-1.749-5.037.092-7.136,1.013-2.984,1.548-4.942,3.82-8.3,3.315a4.558,4.558,0,0,1-2.8-3.452,3.6,3.6,0,0,1-.046-1.427,3.137,3.137,0,0,0-3.4,1.2c-1.864,3.315-.607,8.38,1.259,11.692,1.259,1.8,2.75,4.742,5.6,4.189a28.128,28.128,0,0,0,11.892-6.628A12.332,12.332,0,0,0,285.791,376.949Z" transform="translate(-128.931 -353.272)" fill="#fff"/><path d="M317.624,361.454a6,6,0,0,1-5.174.277c-1.213-.692-2.8-1.888-2.846-3.591a4.652,4.652,0,0,1,1.678-3.913,5.958,5.958,0,0,1,4.944-1.106,4.881,4.881,0,0,1,3.777,4.1A4.5,4.5,0,0,1,317.624,361.454Z" transform="translate(-197.513 -348.411)" fill="#fff"/><path d="M130.977,354.976c-3.264,1.427-4.8-2.393-7.462-2.946-3.87-.782-7.74.461-10.959,2.117-1.323.771-3.422,1.895-3.171,3.454.3,1.461,3.077,2.209,4.757,2.946,4.476,1.749,9.279,2.762,13.477,5.339a8.042,8.042,0,0,1,3.731,8.149c-.7,6.492-6.668,10.544-12.358,12.477-5.457,1.566-12.265,1.151-16.835-1.98a7.723,7.723,0,0,1-3.125-8.472,5.772,5.772,0,0,1,5.037-3.681,4.088,4.088,0,0,1,3.918,1.7c1,1.64-.373,3.728,1.3,4.787,1.493,1.427,4.011,1.245,6.062,1.014,3.171-.737,6.576-2.578,7.789-5.663a2.245,2.245,0,0,0-.7-2.257,26.824,26.824,0,0,0-6.062-2.531c-5.6-2.532-13.151-2.717-16.229-8.609a8.607,8.607,0,0,1,2.518-9.162,32.262,32.262,0,0,1,21.965-7.366c3.544.323,7.462,1.613,8.953,4.926A4.448,4.448,0,0,1,130.977,354.976Z" transform="translate(-98.724 -344.282)" fill="#fff"/></g></g></svg>